<svg id="Layer_1" data-name="Layer 1" xmlns="http://www.w3.org/2000/svg" viewBox="0 0 38.16 38.16">
  <defs>
    <style>
      .cls-1 {
        fill: #fff;
      }
    </style>
  </defs>
  <title>instagram</title>
  <path class="cls-1" d="M31.71,9.37A2.91,2.91,0,0,0,28.8,6.45H9.36A2.92,2.92,0,0,0,6.45,9.37V28.79a2.92,2.92,0,0,0,2.91,2.92H28.8a2.91,2.91,0,0,0,2.91-2.92ZM38,38H.14V.14H38ZM19.08,23.94a4.86,4.86,0,1,0-4.86-4.86,4.87,4.87,0,0,0,4.86,4.86M26.77,18a7.62,7.62,0,0,1,.08,1.08,7.77,7.77,0,0,1-15.54,0A7.62,7.62,0,0,1,11.39,18a6.85,6.85,0,0,1,.22-1h-2v10.6a1,1,0,0,0,1,1h17a1,1,0,0,0,1-1V17h-2a8.37,8.37,0,0,1,.21,1m1.78-7.42v2.29a1,1,0,0,1-1,1H25.29a1,1,0,0,1-1-1V10.58a1,1,0,0,1,1-1h2.29a1,1,0,0,1,1,1"/>
</svg>
