<?xml version="1.0" encoding="utf-8"?>
<!-- Generator: Adobe Illustrator 23.0.1, SVG Export Plug-In . SVG Version: 6.00 Build 0)  -->
<svg version="1.1" id="Layer_1" xmlns="http://www.w3.org/2000/svg" xmlns:xlink="http://www.w3.org/1999/xlink" x="0px" y="0px"
	 viewBox="0 0 278 32.24" style="enable-background:new 0 0 278 32.24;" xml:space="preserve">
<style type="text/css">
	.st0{fill:#FFFFFF;}
</style>
<title>whittemores_logo</title>
<g>
	<polygon class="st0" points="28.13,0.2 24.2,13.77 24.15,13.77 19.46,0.2 14.21,0.2 9.51,13.77 9.46,13.77 5.53,0.2 0,0.2 
		5.99,18.67 12.49,18.67 16.8,6.48 16.86,6.48 21.17,18.67 27.67,18.67 33.66,0.2 	"/>
	<polygon class="st0" points="53.35,0.2 53.35,6.78 41.41,6.78 41.41,0.2 35.75,0.2 35.75,18.67 41.41,18.67 41.41,11.68 
		53.35,11.68 53.35,18.67 59.01,18.67 59.01,0.2 	"/>
	<rect x="63.14" y="0.2" class="st0" width="5.66" height="18.46"/>
	<polygon class="st0" points="71.58,0.2 71.58,4.79 79.54,4.79 79.54,18.67 85.2,18.67 85.2,4.79 93.16,4.79 93.16,0.2 	"/>
	<polygon class="st0" points="94.28,0.2 94.28,4.79 102.24,4.79 102.24,18.67 107.9,18.67 107.9,4.79 115.86,4.79 115.86,0.2 	"/>
	<polygon class="st0" points="118.33,0.2 118.33,18.67 138.86,18.67 138.86,14.23 123.99,14.23 123.99,11.27 137.76,11.27 
		137.76,7.45 123.99,7.45 123.99,4.49 138.53,4.49 138.53,0.2 	"/>
	<polygon class="st0" points="163.78,0.2 157.37,12.09 150.97,0.2 142.28,0.2 142.28,18.67 147.79,18.67 147.79,5.41 147.84,5.41 
		155.26,18.67 159.49,18.67 166.91,5.41 166.96,5.41 166.96,18.67 172.47,18.67 172.47,0.2 	"/>
	<g>
		<g>
			<path class="st0" d="M181.7,10.43c0,2.68,0.57,3.7,3.24,3.7h7.25c2.67,0,3.23-1,3.23-3.7v-2c0-2.29-0.56-3.7-3.54-3.7h-6.63
				c-3,0-3.55,1.41-3.55,3.7V10.43z M175.89,6.68c0-5.4,3-6.68,8.14-6.68h9.07c5.1,0,8.14,1.28,8.14,6.68v5.51
				c0,5.41-3,6.68-8.14,6.68H184c-5.1,0-8.14-1.27-8.14-6.68L175.89,6.68z"/>
			<path class="st0" d="M210.32,9.28h9.36c1.53,0,2.09-0.61,2.09-1.94V6.73c0-1.63-0.82-1.94-2.6-1.94h-8.85L210.32,9.28z
				 M204.66,0.2h17.08c4.36,0,5.54,2.17,5.54,5.49v1.17c0,2.47-0.57,3.93-3.17,4.54l0,0c1.69,0.31,3.09,1.05,3.09,4.08v3.14h-5.66
				v-2.17c0-1.94-0.56-2.58-2.32-2.58h-8.9v4.8h-5.66L204.66,0.2z"/>
		</g>
	</g>
	<polygon class="st0" points="231.1,0.2 231.1,18.67 251.63,18.67 251.63,14.23 236.76,14.23 236.76,11.27 250.53,11.27 
		250.53,7.45 236.76,7.45 236.76,4.49 251.3,4.49 251.3,0.2 	"/>
	<g>
		<g>
			<path class="st0" d="M254.72,12.62h5.66c0,2,0.81,2.12,2.45,2.12h6.93c1.2,0,2.43-0.13,2.43-1.56c0-1.6-0.67-1.7-8-1.7
				c-8.52,0-9.49-1-9.49-5.56c0-3.34,0.31-5.92,7.45-5.92h7.9c6.53,0,7.14,2.22,7.14,5.46V6h-5.66c0-1.35-0.15-1.91-2.75-1.91h-6.27
				c-1.28,0-2.15,0.44-2.15,1.43c0,1.61,0.69,1.66,6.76,1.63c8.8,0,10.84,0.51,10.84,5.89c0,5-1.68,5.79-9.21,5.79h-6.86
				c-5.15,0-7.21-1-7.21-5L254.72,12.62z"/>
		</g>
	</g>
	<polygon class="st0" points="6.02,26.65 6.02,32.21 11.37,32.2 11.37,31.16 7.3,31.16 7.3,26.65 	"/>
	<path class="st0" d="M17.74,27.54l1.51,2.66h-3L17.74,27.54z M16.88,26.64l-3.18,5.57h1.44l0.62-1.1h4l0.63,1.1h1.4l-3.14-5.56
		L16.88,26.64z"/>
	<polygon class="st0" points="30.28,26.64 30.3,31.27 26.13,26.64 24.14,26.64 24.14,32.2 25.38,32.2 25.35,27.6 29.51,32.2 
		31.51,32.2 31.5,26.64 	"/>
	<g>
		<g>
			<path class="st0" d="M39.12,31.18c0.34,0.02,0.69-0.04,1-0.19c0.32-0.17,0.46-0.6,0.46-1.45c0-1.55-0.25-1.86-1.45-1.86h-3.19
				v3.49L39.12,31.18z M34.65,26.64h4.62c0.76-0.1,1.53,0.12,2.12,0.61c0.42,0.67,0.59,1.46,0.48,2.24c0,1.24-0.16,1.85-0.59,2.24
				c-0.55,0.38-1.21,0.55-1.87,0.48h-4.75L34.65,26.64z"/>
			<path class="st0" d="M46,30.43v0.06c0,0.36,0.07,0.55,0.22,0.64c0.47,0.16,0.97,0.22,1.46,0.17c0.57,0,1.15-0.03,1.72-0.1
				c0.32,0,0.48-0.1,0.58-0.22c0.1-0.14,0.16-0.3,0.16-0.47c0-0.33-0.14-0.49-0.52-0.57c-0.58-0.08-1.17-0.1-1.76-0.06h-0.8
				c-1.18,0-1.64-0.1-1.95-0.38c-0.28-0.28-0.43-0.68-0.39-1.08c-0.05-0.49,0.1-0.97,0.42-1.35c0.37-0.35,1.22-0.49,3.06-0.49
				c0.7-0.04,1.41,0.01,2.1,0.16c0.69,0.2,0.93,0.57,0.93,1.43v0.11H50c0-0.32-0.09-0.49-0.26-0.57c-0.45-0.14-0.92-0.2-1.39-0.18
				c-0.67-0.04-1.35,0.02-2,0.19c-0.2,0.11-0.32,0.32-0.3,0.55c-0.03,0.19,0.06,0.39,0.23,0.49c0.45,0.15,0.92,0.2,1.39,0.14h0.94
				c1.67,0,2.17,0.09,2.52,0.46c0.27,0.32,0.39,0.74,0.35,1.16c0.05,0.45-0.1,0.91-0.4,1.25c-0.37,0.35-1.09,0.47-3,0.47
				s-2.63-0.09-3-0.42c-0.27-0.3-0.4-0.7-0.36-1.1c0,0,0-0.18,0-0.29H46z"/>
			<path class="st0" d="M61.19,30.19v0.09c0,0.79-0.08,1.18-0.31,1.43c-0.39,0.43-0.91,0.53-2.72,0.53c-2.22,0-2.63,0-3.12-0.31
				c-0.33-0.19-0.56-0.52-0.63-0.9c-0.1-0.57-0.14-1.14-0.12-1.72c0-1.55,0.16-2.07,0.74-2.4s1-0.33,2.81-0.33
				c1.93,0,2.57,0.1,2.92,0.5c0.29,0.41,0.42,0.91,0.37,1.41H59.9c0-0.8-0.17-0.88-2-0.88c-0.65-0.08-1.31-0.02-1.94,0.18
				c-0.32,0.16-0.39,0.47-0.39,1.67c0,1.62,0.14,1.75,1.87,1.75h1.7c0.6-0.06,0.81-0.28,0.81-0.86v-0.12L61.19,30.19z"/>
		</g>
	</g>
	<path class="st0" d="M67.54,27.52l1.51,2.66h-3L67.54,27.52z M66.69,26.62l-3.19,5.57h1.44l0.62-1.1h4l0.63,1.1h1.4l-3.13-5.56
		L66.69,26.62z"/>
	<g>
		<g>
			<path class="st0" d="M78.07,29.45c0.9,0,1.13-0.18,1.13-0.86s-0.21-0.94-1.07-0.94h-2.92v1.8L78.07,29.45z M73.94,26.62h4.34
				c0.43-0.03,0.86,0,1.28,0.11c0.69,0.21,0.93,0.67,0.93,1.79c0,0.85-0.13,1.32-0.47,1.61s-0.72,0.35-1.59,0.35h-3.22v1.7h-1.27
				V26.62z"/>
		</g>
	</g>
	<polygon class="st0" points="83.35,26.62 83.35,32.18 89.31,32.18 89.31,31.2 84.62,31.2 84.62,29.79 89.04,29.78 89.04,28.91 
		84.62,28.91 84.62,27.59 89.26,27.59 89.26,26.61 	"/>
	<g>
		<g>
			<path class="st0" d="M100.45,31.16c0.34,0.02,0.69-0.04,1-0.19c0.33-0.17,0.46-0.6,0.46-1.46c0-1.54-0.24-1.85-1.44-1.85h-3.21
				v3.5L100.45,31.16z M96,26.61h4.62c0.76-0.09,1.53,0.13,2.12,0.61c0.41,0.66,0.58,1.45,0.47,2.23c0,1.25-0.15,1.85-0.58,2.25
				c-0.55,0.38-1.22,0.55-1.88,0.47H96V26.61z"/>
		</g>
	</g>
	<polygon class="st0" points="106.18,26.61 106.18,32.17 112.14,32.17 112.14,31.19 107.44,31.19 107.44,29.78 111.86,29.77 
		111.86,28.9 107.44,28.9 107.44,27.59 112.09,27.58 112.09,26.61 	"/>
	<g>
		<g>
			<path class="st0" d="M116.21,30.41v0.06c0,0.35,0.07,0.55,0.23,0.64c0.47,0.15,0.96,0.2,1.45,0.16c0.58,0.01,1.16-0.02,1.73-0.1
				c0.21,0,0.41-0.07,0.57-0.21c0.11-0.14,0.17-0.31,0.17-0.48c0-0.32-0.14-0.48-0.53-0.57c-0.58-0.08-1.17-0.1-1.76-0.05h-0.8
				c-1.17,0-1.63-0.1-1.94-0.39c-0.29-0.28-0.43-0.67-0.39-1.07c-0.05-0.49,0.1-0.98,0.41-1.36c0.38-0.35,1.23-0.48,3.06-0.49
				c0.71-0.03,1.42,0.02,2.11,0.16c0.69,0.2,0.93,0.58,0.93,1.44v0.1h-1.25c0-0.33-0.09-0.5-0.27-0.58
				c-0.45-0.14-0.91-0.2-1.38-0.17c-0.67-0.04-1.35,0.02-2,0.19c-0.2,0.1-0.32,0.31-0.3,0.54c-0.02,0.2,0.07,0.39,0.24,0.49
				c0.44,0.15,0.92,0.2,1.38,0.14h0.94c1.67,0,2.18,0.09,2.53,0.47c0.26,0.33,0.38,0.74,0.34,1.16c0.05,0.45-0.1,0.91-0.4,1.25
				c-0.36,0.35-1.08,0.47-3,0.47s-2.62-0.1-3-0.43c-0.27-0.3-0.4-0.7-0.36-1.1c0-0.05,0-0.17,0-0.28L116.21,30.41z"/>
		</g>
	</g>
	<rect x="124.62" y="26.6" class="st0" width="1.28" height="5.56"/>
	<g>
		<g>
			<path class="st0" d="M136.06,29.18v0.59c0.07,0.6-0.01,1.21-0.25,1.76c-0.2,0.31-0.52,0.53-0.88,0.59
				c-0.81,0.1-1.63,0.13-2.45,0.09c-0.83,0.04-1.67-0.03-2.48-0.21c-0.5-0.16-0.87-0.6-0.93-1.12c-0.08-0.49-0.11-0.98-0.09-1.47
				c0-1.47,0.09-1.94,0.45-2.33c0.27-0.27,0.62-0.43,1-0.46c0.91-0.1,1.83-0.13,2.74-0.1c1.63,0,2.21,0.12,2.56,0.51
				c0.27,0.38,0.4,0.85,0.36,1.32h-1.26c0-0.35-0.05-0.48-0.21-0.61s-0.5-0.2-1.58-0.2c-2,0-2.32,0-2.54,0.29s-0.23,0.57-0.23,1.43
				c0,1.09,0.07,1.46,0.3,1.66s0.56,0.26,2.07,0.26s1.82,0,2.07-0.39c0.13-0.24,0.18-0.52,0.15-0.79h-2.47v-0.85L136.06,29.18z"/>
		</g>
	</g>
	<polygon class="st0" points="145.22,26.59 145.24,31.22 141.06,26.59 139.07,26.6 139.07,32.16 140.32,32.16 140.29,27.55 
		144.44,32.16 146.44,32.15 146.44,26.59 	"/>
	<g>
		<g>
			<path class="st0" d="M155.1,29.4h-0.16c-0.2,0-0.38,0.09-0.52,0.23c-0.14,0.22-0.2,0.48-0.17,0.74c0,0.38,0.07,0.57,0.27,0.69
				c0.65,0.18,1.33,0.24,2,0.18c1.17,0,1.6-0.05,1.79-0.2L155.1,29.4z M159.32,31.57c-0.39,0.46-0.88,0.58-2.28,0.58
				c-1.09,0.09-2.18,0.01-3.24-0.24c-0.55-0.25-0.74-0.62-0.74-1.49c0-1.12,0.3-1.45,1.37-1.48c-0.47-0.15-0.77-0.62-0.69-1.11
				c0-0.71,0.22-1,0.79-1.18c0.63-0.09,1.27-0.13,1.91-0.1c2.44,0,2.77,0.19,2.77,1.57v0.16h-1.15v-0.13
				c0.03-0.22-0.07-0.44-0.25-0.57c-0.19-0.09-0.2-0.09-1.25-0.11c-1.26,0-1.26,0-1.47,0.1c-0.12,0.09-0.19,0.23-0.18,0.38
				c0,0.25,0.12,0.38,0.54,0.6l3.15,1.63c0.01-0.15,0.01-0.31,0-0.46c0.01-0.15,0.01-0.3,0-0.45h1.14c0.01,0.08,0.01,0.17,0,0.25
				c0.01,0.4-0.03,0.8-0.1,1.19l1.2,0.62l-0.38,0.83L159.32,31.57z"/>
			<path class="st0" d="M174,30.14v0.1c0,0.79-0.08,1.18-0.31,1.43c-0.39,0.43-0.91,0.53-2.72,0.53c-2.22,0-2.63-0.05-3.12-0.31
				c-0.33-0.2-0.56-0.52-0.64-0.9c-0.09-0.57-0.13-1.14-0.11-1.72c0-1.55,0.16-2.08,0.74-2.4s1.05-0.33,2.81-0.34
				c1.92,0,2.57,0.11,2.92,0.5c0.28,0.42,0.41,0.92,0.36,1.42h-1.22c0-0.81-0.17-0.88-2-0.88c-0.67-0.09-1.35-0.03-2,0.17
				c-0.31,0.17-0.38,0.48-0.38,1.68c0,1.62,0.14,1.74,1.87,1.74h1.7c0.6-0.06,0.81-0.29,0.81-0.86v-0.13L174,30.14z"/>
			<path class="st0" d="M178.15,29.37c0,1.08,0.08,1.43,0.39,1.59s0.58,0.19,2.17,0.19c1.43,0,1.79-0.06,2-0.31s0.25-0.57,0.25-1.51
				c0-1.74,0-1.76-2.42-1.76s-2.41,0-2.41,1.8 M183.8,27.07c0.26,0.34,0.4,0.75,0.41,1.18c0,0.26,0,0.56,0,1.17
				c0,1.4-0.13,1.93-0.56,2.3c-0.41,0.31-0.91,0.46-1.42,0.45c-0.27,0-1.28,0-2.05,0c-1.71,0-2.16-0.05-2.64-0.31
				c-0.4-0.24-0.66-0.66-0.68-1.13c-0.06-0.52-0.09-1.05-0.07-1.58c0-1.3,0.12-1.81,0.52-2.16c0.4-0.31,0.9-0.47,1.41-0.46
				c0.29,0,1.12,0,2.14,0c2,0,2.49,0.1,2.91,0.55"/>
		</g>
	</g>
	<polygon class="st0" points="193.42,26.57 193.45,31.2 189.27,26.58 187.28,26.58 187.28,32.14 188.52,32.14 188.49,27.54 
		192.65,32.14 194.65,32.14 194.65,26.57 	"/>
	<g>
		<g>
			<path class="st0" d="M198.92,30.38v0.05c0,0.36,0.07,0.55,0.23,0.65c0.47,0.15,0.96,0.2,1.45,0.16c0.58,0.01,1.16-0.02,1.73-0.1
				c0.21,0,0.42-0.08,0.57-0.22c0.11-0.13,0.17-0.3,0.17-0.47c0-0.33-0.14-0.48-0.53-0.57c-0.58-0.08-1.17-0.1-1.76-0.06H200
				c-1.17,0-1.63-0.09-1.94-0.38c-0.29-0.28-0.43-0.67-0.39-1.07c-0.05-0.49,0.1-0.98,0.41-1.36c0.38-0.35,1.23-0.49,3.06-0.49
				c0.7-0.04,1.41,0.01,2.1,0.16c0.7,0.2,0.94,0.58,0.94,1.43v0.11h-1.25c0-0.32-0.09-0.49-0.27-0.57c-0.45-0.14-0.91-0.2-1.38-0.18
				c-0.67-0.04-1.35,0.03-2,0.2c-0.2,0.1-0.32,0.31-0.3,0.54c-0.02,0.2,0.07,0.39,0.24,0.49c0.44,0.15,0.92,0.2,1.38,0.14h0.94
				c1.67,0,2.18,0.09,2.53,0.47c0.26,0.33,0.38,0.74,0.34,1.16c0.05,0.45-0.1,0.91-0.4,1.25c-0.37,0.35-1.08,0.46-3,0.46
				s-2.62-0.09-3-0.42c-0.27-0.3-0.4-0.7-0.36-1.1v-0.28H198.92z"/>
		</g>
	</g>
	<polygon class="st0" points="206.84,26.57 206.84,27.61 209.46,27.61 209.46,32.13 210.75,32.13 210.74,27.61 213.35,27.61 
		213.35,26.57 	"/>
	<g>
		<g>
			<path class="st0" d="M220.38,29.37c0.93,0,1.17-0.17,1.17-0.84s-0.19-0.92-1.14-0.92h-3.08v1.76H220.38z M216.05,26.57h4.71
				c1,0,1.42,0.11,1.72,0.44c0.28,0.38,0.41,0.86,0.36,1.33c0.05,0.4-0.03,0.81-0.24,1.16c-0.17,0.21-0.43,0.35-0.7,0.37
				c0.7,0.06,0.86,0.27,0.85,1.16v1.1h-1.29v-0.84c0-0.76-0.19-0.91-1-0.9h-3.09v1.74h-1.27L216.05,26.57z"/>
			<path class="st0" d="M232.72,26.56v3.5c0,1.06-0.17,1.49-0.7,1.8s-1,0.32-2.92,0.32s-2.51-0.11-2.91-0.57s-0.37-0.71-0.37-1.74
				v-3.31h1.28v2.91c-0.04,0.33-0.04,0.67,0,1c0.09,0.59,0.42,0.7,2.09,0.7c0.54,0.01,1.09-0.02,1.63-0.09
				c0.31-0.06,0.54-0.32,0.55-0.63c0.02-0.29,0.02-0.59,0-0.88v-3L232.72,26.56z"/>
			<path class="st0" d="M242.6,30.12v0.09c0,0.79-0.08,1.18-0.32,1.43c-0.38,0.43-0.9,0.53-2.71,0.53c-2.22,0-2.63,0-3.12-0.31
				c-0.33-0.19-0.57-0.52-0.64-0.9c-0.09-0.57-0.13-1.14-0.11-1.72c0-1.55,0.15-2.07,0.74-2.4s1.05-0.33,2.81-0.33
				c1.92,0,2.57,0.11,2.92,0.5c0.28,0.41,0.41,0.91,0.36,1.41h-1.22c0-0.81-0.17-0.89-2-0.89c-0.66-0.08-1.32-0.02-1.95,0.18
				c-0.31,0.17-0.38,0.47-0.38,1.67c0,1.62,0.13,1.75,1.87,1.75h1.7c0.6-0.06,0.81-0.28,0.81-0.86v-0.12L242.6,30.12z"/>
		</g>
	</g>
	<polygon class="st0" points="245.15,26.56 245.15,27.6 247.77,27.6 247.77,32.12 249.05,32.12 249.05,27.6 251.66,27.6 
		251.66,26.55 	"/>
	<rect x="254.36" y="26.55" class="st0" width="1.28" height="5.56"/>
	<g>
		<g>
			<path class="st0" d="M260,29.34c0,1.08,0.08,1.43,0.39,1.59s0.58,0.19,2.17,0.19c1.43,0,1.79-0.06,2-0.31s0.25-0.57,0.25-1.51
				c0-1.74,0-1.76-2.42-1.76s-2.41,0-2.41,1.8 M265.65,27.04c0.26,0.34,0.4,0.75,0.41,1.18c0,0.25,0,0.55,0,1.17
				c0,1.39-0.13,1.93-0.56,2.3c-0.41,0.31-0.91,0.47-1.42,0.45c-0.27,0-1.28,0-2.05,0c-1.7,0-2.16-0.05-2.64-0.31
				c-0.4-0.24-0.65-0.66-0.68-1.13c-0.06-0.52-0.09-1.05-0.07-1.58c0-1.3,0.13-1.81,0.53-2.17c0.4-0.3,0.9-0.46,1.4-0.45
				c0.29,0,1.12,0,2.14,0c2,0,2.49,0.1,2.91,0.55"/>
		</g>
	</g>
	<polygon class="st0" points="275.25,26.55 275.28,31.17 271.1,26.55 269.11,26.55 269.11,32.11 270.35,32.11 270.33,27.5 
		274.48,32.11 276.48,32.1 276.48,26.54 	"/>
</g>
</svg>
