<svg id="Layer_1" data-name="Layer 1" xmlns="http://www.w3.org/2000/svg" xmlns:xlink="http://www.w3.org/1999/xlink" viewBox="0 0 277.96 32.24">
  <defs>
    <style>
      .cls-1 {
        fill: none;
      }

      .cls-2 {
        fill: #c9de7b;
      }

      .cls-3 {
        clip-path: url(#clip-path);
      }

      .cls-4 {
        fill: #fff;
      }
    </style>
    <clipPath id="clip-path" transform="translate(0 0)">
      <rect class="cls-1" width="278" height="32.24"/>
    </clipPath>
  </defs>
  <title>whittemores_logo2</title>
  <g>
    <polygon class="cls-2" points="28.13 0.2 24.2 13.77 24.15 13.77 19.46 0.2 14.21 0.2 9.51 13.77 9.46 13.77 5.53 0.2 0 0.2 5.99 18.67 12.49 18.67 16.8 6.48 16.86 6.48 21.17 18.67 27.67 18.67 33.66 0.2 28.13 0.2"/>
    <polygon class="cls-2" points="53.35 0.2 53.35 6.78 41.41 6.78 41.41 0.2 35.75 0.2 35.75 18.67 41.41 18.67 41.41 11.68 53.35 11.68 53.35 18.67 59.01 18.67 59.01 0.2 53.35 0.2"/>
    <rect class="cls-2" x="63.14" y="0.2" width="5.66" height="18.46"/>
    <polygon class="cls-2" points="71.58 0.2 71.58 4.79 79.54 4.79 79.54 18.67 85.2 18.67 85.2 4.79 93.16 4.79 93.16 0.2 71.58 0.2"/>
    <polygon class="cls-2" points="94.28 0.2 94.28 4.79 102.24 4.79 102.24 18.67 107.9 18.67 107.9 4.79 115.86 4.79 115.86 0.2 94.28 0.2"/>
    <polygon class="cls-2" points="118.33 0.2 118.33 18.67 138.86 18.67 138.86 14.23 123.99 14.23 123.99 11.27 137.76 11.27 137.76 7.45 123.99 7.45 123.99 4.49 138.53 4.49 138.53 0.2 118.33 0.2"/>
    <polygon class="cls-2" points="163.78 0.2 157.37 12.09 150.97 0.2 142.28 0.2 142.28 18.67 147.79 18.67 147.79 5.41 147.84 5.41 155.26 18.67 159.49 18.67 166.91 5.41 166.96 5.41 166.96 18.67 172.47 18.67 172.47 0.2 163.78 0.2"/>
    <g class="cls-3">
      <g>
        <path class="cls-2" d="M181.7,10.43c0,2.68.57,3.7,3.24,3.7h7.25c2.67,0,3.23-1,3.23-3.7v-2c0-2.29-.56-3.7-3.54-3.7h-6.63c-3,0-3.55,1.41-3.55,3.7Zm-5.81-3.75c0-5.4,3-6.68,8.14-6.68h9.07c5.1,0,8.14,1.28,8.14,6.68v5.51c0,5.41-3,6.68-8.14,6.68H184c-5.1,0-8.14-1.27-8.14-6.68Z" transform="translate(0 0)"/>
        <path class="cls-2" d="M210.32,9.28h9.36c1.53,0,2.09-.61,2.09-1.94V6.73c0-1.63-.82-1.94-2.6-1.94h-8.85ZM204.66.2h17.08c4.36,0,5.54,2.17,5.54,5.49V6.86c0,2.47-.57,3.93-3.17,4.54h0c1.69.31,3.09,1,3.09,4.08v3.14h-5.66V16.45c0-1.94-.56-2.58-2.32-2.58h-8.9v4.8h-5.66Z" transform="translate(0 0)"/>
      </g>
    </g>
    <polygon class="cls-2" points="231.1 0.2 231.1 18.67 251.63 18.67 251.63 14.23 236.76 14.23 236.76 11.27 250.53 11.27 250.53 7.45 236.76 7.45 236.76 4.49 251.3 4.49 251.3 0.2 231.1 0.2"/>
    <g class="cls-3">
      <path class="cls-2" d="M254.72,12.62h5.66c0,2,.81,2.12,2.45,2.12h6.93c1.2,0,2.43-.13,2.43-1.56,0-1.6-.67-1.7-8-1.7-8.52,0-9.49-1-9.49-5.56,0-3.34.31-5.92,7.45-5.92h7.9c6.53,0,7.14,2.22,7.14,5.46V6h-5.66c0-1.35-.15-1.91-2.75-1.91h-6.27c-1.28,0-2.15.44-2.15,1.43,0,1.61.69,1.66,6.76,1.63,8.8,0,10.84.51,10.84,5.89,0,5-1.68,5.79-9.21,5.79h-6.86c-5.15,0-7.21-1-7.21-5Z" transform="translate(0 0)"/>
    </g>
    <polygon class="cls-4" points="6.02 26.65 6.02 32.21 11.37 32.2 11.37 31.16 7.3 31.16 7.3 26.65 6.02 26.65"/>
    <path class="cls-4" d="M17.74,27.54l1.51,2.66h-3Zm-.86-.9L13.7,32.21h1.44l.62-1.1h4l.63,1.1h1.4l-3.14-5.56Z" transform="translate(0 0)"/>
    <polygon class="cls-4" points="30.28 26.64 30.3 31.27 26.13 26.64 24.14 26.64 24.14 32.2 25.38 32.2 25.35 27.6 29.51 32.2 31.51 32.2 31.5 26.64 30.28 26.64"/>
    <g class="cls-3">
      <g>
        <path class="cls-4" d="M39.12,31.18a2,2,0,0,0,1-.19c.32-.17.46-.6.46-1.45,0-1.55-.25-1.86-1.45-1.86H35.94v3.49Zm-4.47-4.54h4.62a2.76,2.76,0,0,1,2.12.61,3.33,3.33,0,0,1,.48,2.24c0,1.24-.16,1.85-.59,2.24a2.77,2.77,0,0,1-1.87.48H34.66Z" transform="translate(0 0)"/>
        <path class="cls-4" d="M46,30.43v.06c0,.36.07.55.22.64a3.45,3.45,0,0,0,1.46.17,14.17,14.17,0,0,0,1.72-.1A.69.69,0,0,0,50,31a.81.81,0,0,0,.16-.47c0-.33-.14-.49-.52-.57a8.62,8.62,0,0,0-1.76-.06h-.8c-1.18,0-1.64-.1-2-.38a1.35,1.35,0,0,1-.39-1.08,1.8,1.8,0,0,1,.42-1.35c.37-.35,1.22-.49,3.06-.49a7.81,7.81,0,0,1,2.1.16c.69.2.93.57.93,1.43v.11H50c0-.32-.09-.49-.26-.57a4.09,4.09,0,0,0-1.39-.18,6.42,6.42,0,0,0-2,.19.57.57,0,0,0-.3.55.49.49,0,0,0,.23.49,3.12,3.12,0,0,0,1.39.14h.94c1.67,0,2.17.09,2.52.46a1.56,1.56,0,0,1,.35,1.16,1.63,1.63,0,0,1-.4,1.25c-.37.35-1.09.47-3,.47s-2.63-.09-3-.42a1.43,1.43,0,0,1-.36-1.1v-.29Z" transform="translate(0 0)"/>
        <path class="cls-4" d="M61.19,30.19v.09c0,.79-.08,1.18-.31,1.43-.39.43-.91.53-2.72.53-2.22,0-2.63,0-3.12-.31a1.31,1.31,0,0,1-.63-.9,8.25,8.25,0,0,1-.12-1.72c0-1.55.16-2.07.74-2.4s1-.33,2.81-.33,2.57.1,2.92.5a2.08,2.08,0,0,1,.37,1.41H59.9c0-.8-.17-.88-2-.88a4.56,4.56,0,0,0-1.94.18c-.32.16-.39.47-.39,1.67,0,1.62.14,1.75,1.87,1.75h1.7c.6-.06.81-.28.81-.86v-.12Z" transform="translate(0 0)"/>
      </g>
    </g>
    <path class="cls-4" d="M67.54,27.52l1.51,2.66h-3Zm-.85-.9L63.5,32.19h1.44l.62-1.1h4l.63,1.1h1.4l-3.13-5.56Z" transform="translate(0 0)"/>
    <g class="cls-3">
      <path class="cls-4" d="M78.07,29.45c.9,0,1.13-.18,1.13-.86s-.21-.94-1.07-.94H75.21v1.8Zm-4.13-2.83h4.34a4,4,0,0,1,1.28.11c.69.21.93.67.93,1.79,0,.85-.13,1.32-.47,1.61s-.72.35-1.59.35H75.21v1.7H73.94Z" transform="translate(0 0)"/>
    </g>
    <polygon class="cls-4" points="83.35 26.62 83.35 32.18 89.31 32.18 89.31 31.2 84.62 31.2 84.62 29.79 89.04 29.78 89.04 28.91 84.62 28.91 84.62 27.59 89.26 27.59 89.26 26.61 83.35 26.62"/>
    <g class="cls-3">
      <path class="cls-4" d="M100.45,31.16a2,2,0,0,0,1-.19c.33-.17.46-.6.46-1.46,0-1.54-.24-1.85-1.44-1.85H97.26v3.5ZM96,26.61h4.62a2.84,2.84,0,0,1,2.12.61,3.34,3.34,0,0,1,.47,2.23c0,1.25-.15,1.85-.58,2.25a2.74,2.74,0,0,1-1.88.47H96Z" transform="translate(0 0)"/>
    </g>
    <polygon class="cls-4" points="106.18 26.61 106.18 32.17 112.14 32.17 112.14 31.19 107.44 31.19 107.44 29.78 111.86 29.77 111.86 28.9 107.44 28.9 107.44 27.59 112.09 27.58 112.09 26.61 106.18 26.61"/>
    <g class="cls-3">
      <path class="cls-4" d="M116.21,30.41v.06c0,.35.07.55.23.64a3.75,3.75,0,0,0,1.45.16,11.09,11.09,0,0,0,1.73-.1.86.86,0,0,0,.57-.21.78.78,0,0,0,.17-.48c0-.32-.14-.48-.53-.57a8,8,0,0,0-1.76-.05h-.8c-1.17,0-1.63-.1-1.94-.39a1.3,1.3,0,0,1-.39-1.07,1.86,1.86,0,0,1,.41-1.36c.38-.35,1.23-.48,3.06-.49a8.76,8.76,0,0,1,2.11.16c.69.2.93.58.93,1.44v.1H120.2c0-.33-.09-.5-.27-.58a3.8,3.8,0,0,0-1.38-.17,6.42,6.42,0,0,0-2,.19.55.55,0,0,0-.3.54.5.5,0,0,0,.24.49,3.08,3.08,0,0,0,1.38.14h.94c1.67,0,2.18.09,2.53.47a1.61,1.61,0,0,1,.34,1.16,1.63,1.63,0,0,1-.4,1.25c-.36.35-1.08.47-3,.47s-2.62-.1-3-.43a1.43,1.43,0,0,1-.36-1.1V30.4Z" transform="translate(0 0)"/>
    </g>
    <rect class="cls-4" x="124.62" y="26.6" width="1.28" height="5.56"/>
    <g class="cls-3">
      <path class="cls-4" d="M136.06,29.18v.59a3.41,3.41,0,0,1-.25,1.76,1.32,1.32,0,0,1-.88.59,14.31,14.31,0,0,1-2.45.09A9.39,9.39,0,0,1,130,32a1.35,1.35,0,0,1-.93-1.12,7.26,7.26,0,0,1-.09-1.47c0-1.47.09-1.94.45-2.33a1.58,1.58,0,0,1,1-.46,19.31,19.31,0,0,1,2.74-.1c1.63,0,2.21.12,2.56.51a2,2,0,0,1,.36,1.32h-1.26c0-.35-.05-.48-.21-.61s-.5-.2-1.58-.2c-2,0-2.32,0-2.54.29s-.23.57-.23,1.43c0,1.09.07,1.46.3,1.66s.56.26,2.07.26,1.82,0,2.07-.39a1.35,1.35,0,0,0,.15-.79h-2.47v-.85Z" transform="translate(0 0)"/>
    </g>
    <polygon class="cls-4" points="145.22 26.59 145.24 31.22 141.06 26.59 139.07 26.6 139.07 32.16 140.32 32.16 140.29 27.55 144.44 32.16 146.44 32.15 146.44 26.59 145.22 26.59"/>
    <g class="cls-3">
      <g>
        <path class="cls-4" d="M155.1,29.4h-.16a.74.74,0,0,0-.52.23,1.13,1.13,0,0,0-.17.74c0,.38.07.57.27.69a5.63,5.63,0,0,0,2,.18c1.17,0,1.6,0,1.79-.2Zm4.22,2.17c-.39.46-.88.58-2.28.58a10.37,10.37,0,0,1-3.24-.24c-.55-.25-.74-.62-.74-1.49,0-1.12.3-1.45,1.37-1.48a1,1,0,0,1-.69-1.11c0-.71.22-1,.79-1.18a10.15,10.15,0,0,1,1.91-.1c2.44,0,2.77.19,2.77,1.57v.16h-1.15v-.13a.61.61,0,0,0-.25-.57c-.19-.09-.2-.09-1.25-.11-1.26,0-1.26,0-1.47.1a.44.44,0,0,0-.18.38c0,.25.12.38.54.6l3.15,1.63a3.53,3.53,0,0,0,0-.46,3.38,3.38,0,0,0,0-.45h1.14a1,1,0,0,1,0,.25,5.92,5.92,0,0,1-.1,1.19l1.2.62-.38.83Z" transform="translate(0 0)"/>
        <path class="cls-4" d="M174,30.14v.1c0,.79-.08,1.18-.31,1.43-.39.43-.91.53-2.72.53-2.22,0-2.63-.05-3.12-.31a1.38,1.38,0,0,1-.64-.9,9,9,0,0,1-.11-1.72c0-1.55.16-2.08.74-2.4s1-.33,2.81-.34c1.92,0,2.57.11,2.92.5a2.17,2.17,0,0,1,.36,1.42h-1.22c0-.81-.17-.88-2-.88a4.68,4.68,0,0,0-2,.17c-.31.17-.38.48-.38,1.68,0,1.62.14,1.74,1.87,1.74h1.7c.6-.06.81-.29.81-.86v-.13Z" transform="translate(0 0)"/>
        <path class="cls-4" d="M178.15,29.37c0,1.08.08,1.43.39,1.59s.58.19,2.17.19c1.43,0,1.79-.06,2-.31s.25-.57.25-1.51c0-1.74,0-1.76-2.42-1.76s-2.41,0-2.41,1.8m5.67-2.3a2,2,0,0,1,.41,1.18v1.17c0,1.4-.13,1.93-.56,2.3a2.27,2.27,0,0,1-1.42.45h-2c-1.71,0-2.16-.05-2.64-.31a1.39,1.39,0,0,1-.68-1.13,10.39,10.39,0,0,1-.07-1.58c0-1.3.12-1.81.52-2.16a2.23,2.23,0,0,1,1.41-.46h2.14c2,0,2.49.1,2.91.55" transform="translate(0 0)"/>
      </g>
    </g>
    <polygon class="cls-4" points="193.42 26.57 193.45 31.2 189.27 26.58 187.28 26.58 187.28 32.14 188.52 32.14 188.49 27.54 192.65 32.14 194.65 32.14 194.65 26.57 193.42 26.57"/>
    <g class="cls-3">
      <path class="cls-4" d="M198.92,30.38v.05c0,.36.07.55.23.65a3.75,3.75,0,0,0,1.45.16,11.09,11.09,0,0,0,1.73-.1.85.85,0,0,0,.57-.22.73.73,0,0,0,.17-.47c0-.33-.14-.48-.53-.57a8.62,8.62,0,0,0-1.76-.06H200c-1.17,0-1.63-.09-1.94-.38a1.3,1.3,0,0,1-.39-1.07,1.86,1.86,0,0,1,.41-1.36c.38-.35,1.23-.49,3.06-.49a7.81,7.81,0,0,1,2.1.16c.7.2.94.58.94,1.43v.11h-1.25c0-.32-.09-.49-.27-.57a4,4,0,0,0-1.38-.18,6.42,6.42,0,0,0-2,.2.55.55,0,0,0-.3.54.5.5,0,0,0,.24.49,3.08,3.08,0,0,0,1.38.14h.94c1.67,0,2.18.09,2.53.47a1.61,1.61,0,0,1,.34,1.16,1.63,1.63,0,0,1-.4,1.25c-.37.35-1.08.46-3,.46s-2.62-.09-3-.42a1.43,1.43,0,0,1-.36-1.1v-.28Z" transform="translate(0 0)"/>
    </g>
    <polygon class="cls-4" points="206.84 26.57 206.84 27.61 209.46 27.61 209.46 32.13 210.75 32.13 210.74 27.61 213.35 27.61 213.35 26.57 206.84 26.57"/>
    <g class="cls-3">
      <g>
        <path class="cls-4" d="M220.38,29.37c.93,0,1.17-.17,1.17-.84s-.19-.92-1.14-.92h-3.08v1.76Zm-4.33-2.8h4.71c1,0,1.42.11,1.72.44a1.91,1.91,0,0,1,.36,1.33,1.82,1.82,0,0,1-.24,1.16,1,1,0,0,1-.7.37c.7.06.86.27.85,1.16v1.1h-1.29v-.84c0-.76-.19-.91-1-.9h-3.09v1.74H216.1Z" transform="translate(0 0)"/>
        <path class="cls-4" d="M232.72,26.56v3.5c0,1.06-.17,1.49-.7,1.8s-1,.32-2.92.32-2.51-.11-2.91-.57-.37-.71-.37-1.74V26.56h1.28v2.91a4.18,4.18,0,0,0,0,1c.09.59.42.7,2.09.7a11.14,11.14,0,0,0,1.63-.09.67.67,0,0,0,.55-.63,6.46,6.46,0,0,0,0-.88v-3Z" transform="translate(0 0)"/>
        <path class="cls-4" d="M242.6,30.12v.09c0,.79-.08,1.18-.32,1.43-.38.43-.9.53-2.71.53-2.22,0-2.63,0-3.12-.31a1.32,1.32,0,0,1-.64-.9,9,9,0,0,1-.11-1.72c0-1.55.15-2.07.74-2.4s1.05-.33,2.81-.33c1.92,0,2.57.11,2.92.5a2.13,2.13,0,0,1,.36,1.41h-1.22c0-.81-.17-.89-2-.89a4.59,4.59,0,0,0-1.95.18c-.31.17-.38.47-.38,1.67,0,1.62.13,1.75,1.87,1.75h1.7c.6-.06.81-.28.81-.86v-.12Z" transform="translate(0 0)"/>
      </g>
    </g>
    <polygon class="cls-4" points="245.15 26.56 245.15 27.6 247.77 27.6 247.77 32.12 249.05 32.12 249.05 27.6 251.66 27.6 251.66 26.55 245.15 26.56"/>
    <rect class="cls-4" x="254.36" y="26.55" width="1.28" height="5.56"/>
    <g class="cls-3">
      <path class="cls-4" d="M260,29.34c0,1.08.08,1.43.39,1.59s.58.19,2.17.19c1.43,0,1.79-.06,2-.31s.25-.57.25-1.51c0-1.74,0-1.76-2.42-1.76s-2.41,0-2.41,1.8m5.67-2.3a2,2,0,0,1,.41,1.18v1.17c0,1.39-.13,1.93-.56,2.3a2.21,2.21,0,0,1-1.42.45H262c-1.7,0-2.16,0-2.64-.31a1.41,1.41,0,0,1-.68-1.13,10.39,10.39,0,0,1-.07-1.58c0-1.3.13-1.81.53-2.17a2.27,2.27,0,0,1,1.4-.45h2.14c2,0,2.49.1,2.91.55" transform="translate(0 0)"/>
    </g>
    <polygon class="cls-4" points="275.25 26.55 275.28 31.17 271.1 26.55 269.11 26.55 269.11 32.11 270.35 32.11 270.33 27.5 274.48 32.11 276.48 32.1 276.48 26.54 275.25 26.55"/>
  </g>
</svg>
